<svg xmlns="http://www.w3.org/2000/svg" width="320" height="320" viewBox="0 0 320 320" role="img" aria-label="Motorbike illustration">
  <defs>
    <linearGradient id="bg" x1="0" y1="0" x2="1" y2="1">
      <stop offset="0" stop-color="#6e90c8"/>
      <stop offset="1" stop-color="#1f2438"/>
    </linearGradient>
  </defs>
  <rect width="320" height="320" rx="24" fill="url(#bg)"/>
  <rect x="0" y="236" width="320" height="84" fill="#2f3a2b"/>
  <circle cx="88" cy="214" r="34" fill="#111"/>
  <circle cx="88" cy="214" r="22" fill="#d8dce8"/>
  <circle cx="228" cy="214" r="34" fill="#111"/>
  <circle cx="228" cy="214" r="22" fill="#d8dce8"/>
  <path d="M88 214l34-44h58l26 44h-20l-20-30h-35l-23 30z" fill="#1ed760"/>
  <path d="M146 170l24-24h36l-20 24z" fill="#dde3f5"/>
  <rect x="174" y="138" width="22" height="10" rx="4" fill="#111"/>
  <rect x="106" y="150" width="26" height="8" rx="4" fill="#111"/>
  <path d="M206 214h22l12-24h-14z" fill="#c9cedf"/>
  <rect x="2" y="2" width="316" height="316" rx="22" fill="none" stroke="#ffffff22"/>
</svg>
