<svg xmlns="http://www.w3.org/2000/svg" width="320" height="320" viewBox="0 0 320 320" role="img" aria-label="Horse riding scene">
  <defs>
    <linearGradient id="sky" x1="0" y1="0" x2="0" y2="1">
      <stop offset="0" stop-color="#8db7d6"/>
      <stop offset="0.55" stop-color="#3d607a"/>
      <stop offset="1" stop-color="#1a2530"/>
    </linearGradient>
    <linearGradient id="ground" x1="0" y1="0" x2="1" y2="0">
      <stop offset="0" stop-color="#5f7f52"/>
      <stop offset="1" stop-color="#3e573c"/>
    </linearGradient>
    <radialGradient id="sun" cx="0.24" cy="0.18" r="0.36">
      <stop offset="0" stop-color="#fff2b0" stop-opacity="0.95"/>
      <stop offset="1" stop-color="#fff2b0" stop-opacity="0"/>
    </radialGradient>
  </defs>

  <rect width="320" height="320" rx="24" fill="url(#sky)"/>
  <rect width="320" height="320" rx="24" fill="url(#sun)"/>

  <path d="M0 218C45 202 98 212 144 226C186 238 246 244 320 220V320H0Z" fill="url(#ground)"/>
  <path d="M0 252C60 233 132 240 198 255C241 265 284 266 320 257V320H0Z" fill="#30432f" opacity="0.75"/>

  <g transform="translate(64 112)">
    <path d="M31 94c7-27 28-43 60-48 24-4 50 3 73 17 11 7 22 10 35 8l5 16c-16 5-33 2-48-8-3-2-7-4-10-6l-4 18c-4 20-16 32-38 32H73l-18 25H34l16-25c-13-3-22-11-19-29z" fill="#5f4738"/>
    <ellipse cx="95" cy="61" rx="29" ry="24" fill="#6e5443"/>
    <path d="M115 44l22-22 10 14-15 25z" fill="#4f3a2c"/>
    <circle cx="132" cy="53" r="4.6" fill="#0f0f0f"/>
    <path d="M58 86h78l7 12H49z" fill="#2a2a2a"/>
    <path d="M66 95h14l-11 51H56zM124 95h15l9 51h-14z" fill="#3f3026"/>
    <path d="M40 80l24-8 12 6-23 16z" fill="#735a47"/>

    <path d="M90 28c13 0 24 10 24 23v4h-18v-4a7 7 0 0 0-14 0v8h-16v-8c0-13 11-23 24-23z" fill="#111a24"/>
    <rect x="86" y="50" width="20" height="26" rx="7" fill="#1b2633"/>
    <path d="M81 72l9 8-8 14h-10zM109 72l12 7 7 13h-11z" fill="#151f2b"/>
  </g>

  <rect x="2" y="2" width="316" height="316" rx="22" fill="none" stroke="#ffffff22"/>
</svg>
