<svg xmlns="http://www.w3.org/2000/svg" width="320" height="320" viewBox="0 0 320 320" role="img" aria-label="Keyboard music illustration">
  <defs>
    <linearGradient id="bg" x1="0" y1="0" x2="1" y2="1">
      <stop offset="0" stop-color="#a88dc8"/>
      <stop offset="1" stop-color="#202437"/>
    </linearGradient>
    <linearGradient id="body" x1="0" y1="0" x2="1" y2="0">
      <stop offset="0" stop-color="#eceff4"/>
      <stop offset="1" stop-color="#c8d0da"/>
    </linearGradient>
  </defs>
  <rect width="320" height="320" rx="24" fill="url(#bg)"/>
  <circle cx="70" cy="70" r="40" fill="#ffffff22"/>
  <g transform="translate(40 120)">
    <rect x="0" y="0" width="240" height="120" rx="12" fill="url(#body)"/>
    <rect x="10" y="10" width="220" height="26" rx="8" fill="#3a4053"/>
    <g fill="#111">
      <rect x="14" y="42" width="20" height="66"/>
      <rect x="42" y="42" width="20" height="66"/>
      <rect x="70" y="42" width="20" height="66"/>
      <rect x="98" y="42" width="20" height="66"/>
      <rect x="126" y="42" width="20" height="66"/>
      <rect x="154" y="42" width="20" height="66"/>
      <rect x="182" y="42" width="20" height="66"/>
      <rect x="210" y="42" width="16" height="66"/>
    </g>
    <g fill="#f6f7fb">
      <rect x="22" y="42" width="12" height="40"/>
      <rect x="50" y="42" width="12" height="40"/>
      <rect x="106" y="42" width="12" height="40"/>
      <rect x="134" y="42" width="12" height="40"/>
      <rect x="190" y="42" width="12" height="40"/>
    </g>
  </g>
  <path d="M268 84a12 12 0 1 1-24 0c0-7 5-12 12-12h6V41h10v43a12 12 0 0 1-4 9z" fill="#f2f4ff"/>
</svg>
