<svg xmlns="http://www.w3.org/2000/svg" width="320" height="320" viewBox="0 0 320 320" role="img" aria-label="Music listening illustration">
  <defs>
    <linearGradient id="bg" x1="0" y1="0" x2="1" y2="1">
      <stop offset="0" stop-color="#5a84c9"/>
      <stop offset="1" stop-color="#221f3a"/>
    </linearGradient>
    <linearGradient id="vinyl" x1="0" y1="0" x2="1" y2="1">
      <stop offset="0" stop-color="#151515"/>
      <stop offset="1" stop-color="#020202"/>
    </linearGradient>
  </defs>
  <rect width="320" height="320" rx="24" fill="url(#bg)"/>
  <circle cx="160" cy="168" r="96" fill="url(#vinyl)"/>
  <circle cx="160" cy="168" r="67" fill="none" stroke="#2a2a2a" stroke-width="10"/>
  <circle cx="160" cy="168" r="38" fill="none" stroke="#3a3a3a" stroke-width="8"/>
  <circle cx="160" cy="168" r="14" fill="#d6d8ef"/>
  <rect x="210" y="88" width="14" height="120" rx="7" fill="#d8dcff"/>
  <circle cx="216" cy="205" r="12" fill="#f6f7ff"/>
  <path d="M96 88a10 10 0 1 1-20 0c0-6 4-10 10-10h4V54h8v34a10 10 0 0 1-2 6zM120 64a8 8 0 1 1-16 0c0-5 3-8 8-8h2V37h6v27a8 8 0 0 1 0 0z" fill="#f4f6ff"/>
</svg>
